<?xml version="1.0" standalone="no"?>
<!DOCTYPE svg PUBLIC "-//W3C//DTD SVG 20010904//EN"
 "http://www.w3.org/TR/2001/REC-SVG-20010904/DTD/svg10.dtd">
<svg version="1.0" xmlns="http://www.w3.org/2000/svg"
 width="500.000000pt" height="500.000000pt" viewBox="0 0 500.000000 500.000000"
 preserveAspectRatio="xMidYMid meet">
<metadata>
Created by potrace 1.16, written by Peter Selinger 2001-2019
</metadata>
<g transform="translate(0.000000,500.000000) scale(0.100000,-0.100000)"
fill="#000000" stroke="none">
<path d="M2310 4254 c-397 -37 -605 -107 -899 -304 -138 -92 -326 -267 -426
-395 -172 -220 -293 -485 -356 -775 -34 -162 -39 -460 -9 -634 84 -497 364
-929 785 -1211 138 -92 365 -208 365 -186 0 5 -14 14 -30 21 -17 7 -29 14 -27
16 2 2 38 -10 80 -26 152 -60 385 -111 492 -109 39 1 20 6 -85 25 -74 13 -182
38 -239 55 -111 32 -265 89 -259 95 2 2 45 -12 95 -31 102 -38 220 -70 338
-91 137 -24 127 -14 -15 15 -394 81 -704 252 -960 529 -119 130 -201 249 -279
407 -110 220 -156 386 -181 649 -26 270 42 603 180 876 248 492 727 837 1268
915 122 17 347 28 312 15 -17 -7 -1 -8 53 -4 44 3 77 1 74 -3 -3 -4 25 -9 62
-10 142 -4 465 -111 635 -211 93 -54 213 -141 306 -222 36 -31 74 -62 85 -70
20 -15 20 -15 0 10 -11 14 -33 40 -49 58 -17 17 -26 32 -22 32 18 0 110 -86
184 -173 43 -51 102 -117 131 -147 52 -54 52 -54 30 -15 -57 98 -231 299 -345
396 -120 104 -206 159 -379 244 -221 109 -441 177 -623 192 -42 3 -81 9 -87
12 -5 4 -64 8 -130 10 -66 2 -122 5 -124 7 -2 2 52 4 120 4 226 0 482 -46 704
-127 93 -34 243 -107 255 -123 3 -4 14 -10 25 -14 11 -3 36 -19 55 -36 19 -16
38 -30 41 -30 5 0 22 -13 66 -50 7 -5 16 -10 20 -10 14 0 169 -142 229 -210
81 -92 162 -203 215 -296 118 -205 146 -254 181 -324 47 -94 48 -79 4 43 -191
527 -596 932 -1113 1111 -218 75 -546 119 -753 100z"/>
<path d="M1895 3260 c-149 -33 -249 -109 -281 -216 -20 -68 -17 -122 10 -180
32 -70 75 -101 271 -201 145 -74 179 -96 231 -149 190 -191 103 -444 -152
-444 -138 0 -239 58 -284 162 -20 46 -22 63 -16 137 l6 84 -37 -6 c-52 -9 -63
-24 -69 -98 -10 -101 14 -171 80 -235 59 -58 112 -80 225 -94 184 -24 359 56
427 195 53 109 20 231 -90 340 -50 49 -92 76 -231 147 -94 48 -186 101 -207
118 -145 119 -78 348 113 389 166 36 305 -77 317 -257 3 -46 9 -75 17 -78 7
-3 30 2 50 10 l38 16 -6 76 c-13 175 -122 280 -300 289 -39 2 -90 0 -112 -5z"/>
<path d="M2610 3250 c-130 -11 -241 -29 -257 -42 -26 -21 -1 -30 68 -24 l68 7
5 -33 c11 -67 26 -344 26 -486 0 -479 -84 -804 -225 -872 -79 -38 -178 -16
-276 61 -41 32 -56 35 -94 17 -38 -17 -31 -35 35 -77 162 -105 351 -91 470 35
110 117 163 309 179 658 4 91 11 169 15 173 4 4 107 7 230 6 210 0 262 5 242
24 -13 13 -192 19 -335 10 -73 -4 -135 -6 -137 -5 -2 2 -8 104 -13 227 -6 122
-14 233 -17 245 -5 21 -1 24 48 29 71 9 347 8 430 -2 69 -7 128 4 135 25 2 6
-4 15 -14 19 -26 11 -470 15 -583 5z"/>
<path d="M3279 2151 c-35 -35 -38 -77 -8 -115 16 -21 29 -26 63 -26 52 0 86
31 86 77 0 45 -9 62 -41 78 -42 22 -67 18 -100 -14z"/>
<path d="M4056 2154 c-3 -8 -6 -17 -6 -19 0 -2 25 -9 55 -16 31 -7 58 -15 60
-19 2 -4 -30 -22 -71 -40 -99 -43 -96 -57 21 -87 110 -27 105 -27 105 -4 0 15
-12 22 -55 32 -30 7 -55 15 -55 19 0 4 29 19 65 35 36 15 70 36 75 46 11 19
12 19 -115 50 -22 6 -47 12 -56 15 -9 3 -19 -3 -23 -12z"/>
<path d="M3946 1814 c-14 -31 -26 -59 -26 -63 0 -8 179 -85 185 -79 5 4 55
116 55 122 0 2 -7 6 -15 10 -10 3 -21 -9 -34 -40 -18 -40 -23 -45 -43 -39 -32
10 -31 9 -13 45 16 31 15 60 -3 60 -5 0 -16 -18 -25 -41 -14 -36 -18 -39 -36
-29 -25 13 -25 11 -6 57 19 44 19 53 1 53 -8 0 -26 -25 -40 -56z"/>
<path d="M3719 1441 c-37 -37 -39 -84 -5 -106 25 -17 45 -13 88 17 14 10 31
18 38 18 22 0 5 -45 -26 -65 -30 -20 -35 -45 -9 -45 8 0 30 14 50 31 26 23 35
39 35 63 0 60 -42 73 -110 34 -30 -18 -42 -20 -51 -11 -9 9 -5 19 19 42 18 16
32 34 32 40 0 21 -31 11 -61 -18z"/>
<path d="M3524 1240 c-51 -20 -71 -101 -38 -149 21 -30 71 -51 107 -44 34 7
77 56 77 89 0 76 -78 132 -146 104z"/>
<path d="M3265 1061 c-39 -16 -60 -51 -60 -98 0 -38 5 -49 33 -74 42 -38 92
-39 128 -4 13 14 28 24 32 24 30 -5 31 4 7 51 l-26 51 -29 -18 c-37 -22 -41
-46 -5 -37 29 7 31 -2 9 -34 -32 -47 -114 -9 -114 53 0 31 34 59 64 53 16 -3
27 0 31 10 10 27 -28 40 -70 23z"/>
<path d="M2831 868 c-5 -13 -12 -38 -15 -55 -4 -18 -11 -35 -16 -38 -5 -3 -25
15 -45 40 -39 47 -75 60 -75 26 0 -20 26 -156 35 -178 2 -7 12 -10 21 -6 13 5
15 14 9 51 -4 24 -9 52 -12 61 -2 9 11 -1 31 -23 19 -21 41 -36 48 -33 7 2 19
26 27 53 l14 49 8 -40 c5 -22 11 -50 14 -62 3 -15 13 -23 25 -23 16 0 19 5 15
23 -8 34 -35 168 -35 173 0 2 -9 4 -20 4 -12 0 -24 -9 -29 -22z"/>
<path d="M2411 748 c-18 -51 -36 -99 -38 -105 -3 -8 3 -13 16 -13 13 0 23 8
27 24 4 19 13 25 45 28 34 3 40 0 50 -24 7 -17 19 -28 30 -28 11 0 19 1 19 3
0 2 -17 48 -39 103 -52 134 -65 136 -110 12z"/>
</g>
</svg>
